<svg width="98" height="77" viewBox="0 0 98 77" fill="none" xmlns="http://www.w3.org/2000/svg">
<path d="M93.659 0.0200195C96.3196 0.0200459 97.94 2.93781 96.5269 5.1841L54.6862 71.6913C51.4556 77.0814 49.2897 77.3719 45.3854 72.9303L92.1651 0.0200195H93.659Z" fill="#FBB500"/>
<path d="M40.0235 65.6335C38.7545 63.7476 37.1153 61.275 34.9993 58.0329L55.1732 26.5906L71.554 1.5508C72.1788 0.595794 73.2456 0.0200195 74.3897 0.0200195H82.1214L40.0235 65.6335Z" fill="#FBB500"/>
<path d="M43.0484 29.8336L29.9539 50.2426C28.4616 47.9236 26.8152 45.3538 24.9985 42.5063L38.3555 21.6883L43.0484 29.8336Z" fill="#FBB500"/>
<path d="M23.9115 0.0200195C25.1238 0.0200195 26.2436 0.665978 26.8472 1.71356L33.6038 13.4407L19.9991 34.6444C14.9431 26.6708 8.83912 16.9814 1.47134 5.2066C0.0661714 2.96091 1.66704 0.0200195 4.32296 0.0200195H23.9115Z" fill="#FBB500"/>
</svg>
