<svg width="32" height="32" viewBox="0 0 32 32" fill="none" xmlns="http://www.w3.org/2000/svg">
<path d="M0.00634766 8C0.00634766 3.58172 3.58807 0 8.00635 0H24.0063C28.4246 0 32.0063 3.58172 32.0063 8V24C32.0063 28.4183 28.4246 32 24.0063 32H8.00635C3.58807 32 0.00634766 28.4183 0.00634766 24V8Z" fill="#1E1E1E"/>
<g clip-path="url(#clip0_19_689)">
<path d="M14.1086 11.6057C14.9531 10.0909 15.3753 9.3335 16.0065 9.3335C16.6378 9.3335 17.06 10.0909 17.9044 11.6057L18.1229 11.9977C18.3628 12.4281 18.4828 12.6434 18.6699 12.7854C18.857 12.9274 19.0899 12.9801 19.5559 13.0855L19.9802 13.1815C21.6199 13.5525 22.4398 13.738 22.6349 14.3653C22.83 14.9926 22.271 15.6462 21.1531 16.9534L20.8639 17.2916C20.5462 17.6631 20.3874 17.8489 20.3159 18.0786C20.2445 18.3084 20.2685 18.5562 20.3165 19.0519L20.3602 19.5031C20.5293 21.2472 20.6138 22.1193 20.1031 22.507C19.5924 22.8947 18.8247 22.5412 17.2894 21.8343L16.8922 21.6514C16.4559 21.4505 16.2377 21.3501 16.0065 21.3501C15.7753 21.3501 15.5571 21.4505 15.1208 21.6514L14.7236 21.8343C13.1883 22.5412 12.4206 22.8947 11.9099 22.507C11.3993 22.1193 11.4838 21.2472 11.6528 19.5031L11.6965 19.0519C11.7445 18.5562 11.7685 18.3084 11.6971 18.0786C11.6256 17.8489 11.4668 17.6631 11.1491 17.2916L10.8599 16.9534C9.74201 15.6462 9.18306 14.9926 9.37812 14.3653C9.57319 13.738 10.3931 13.5525 12.0329 13.1815L12.4571 13.0855C12.9231 12.9801 13.1561 12.9274 13.3431 12.7854C13.5302 12.6434 13.6502 12.4281 13.8902 11.9977L14.1086 11.6057Z" stroke="white"/>
</g>
<defs>
<clipPath id="clip0_19_689">
<rect x="8.00635" y="8" width="16" height="16" rx="5" fill="white"/>
</clipPath>
</defs>
</svg>
