<svg width="16" height="17" viewBox="0 0 16 17" fill="none" xmlns="http://www.w3.org/2000/svg">
<g clip-path="url(#clip0_19_505)">
<path d="M3.53789 7.67921C5.48346 4.22966 6.45625 2.50488 7.99674 2.50488C9.53724 2.50488 10.51 4.22966 12.4556 7.67921L12.698 8.10906C14.3148 10.9756 15.1232 12.4089 14.3926 13.4569C13.662 14.5049 11.8544 14.5049 8.23919 14.5049H7.7543C4.13912 14.5049 2.33153 14.5049 1.60092 13.4569C0.870306 12.4089 1.67869 10.9756 3.29545 8.10906L3.53789 7.67921Z" stroke="#F5A524" stroke-width="1.5"/>
<path d="M7.99683 5.83838V9.17171" stroke="#F5A524" stroke-width="1.5" stroke-linecap="round"/>
<mask id="path-3-inside-1_19_505" fill="white">
<ellipse cx="7.99675" cy="11.1715" rx="0.666667" ry="0.666667"/>
</mask>
<ellipse cx="7.99675" cy="11.1715" rx="0.666667" ry="0.666667" fill="black"/>
<path d="M8.66341 11.1715H7.66341C7.66341 10.9875 7.81265 10.8382 7.99674 10.8382V11.8382V12.8382C8.91722 12.8382 9.66341 12.092 9.66341 11.1715H8.66341ZM7.99674 11.8382V10.8382C8.18084 10.8382 8.33008 10.9875 8.33008 11.1715H7.33008H6.33008C6.33008 12.092 7.07627 12.8382 7.99674 12.8382V11.8382ZM7.33008 11.1715H8.33008C8.33008 11.3556 8.18084 11.5049 7.99674 11.5049V10.5049V9.50488C7.07627 9.50488 6.33008 10.2511 6.33008 11.1715H7.33008ZM7.99674 10.5049V11.5049C7.81265 11.5049 7.66341 11.3556 7.66341 11.1715H8.66341H9.66341C9.66341 10.2511 8.91722 9.50488 7.99674 9.50488V10.5049Z" fill="#F5A524" mask="url(#path-3-inside-1_19_505)"/>
</g>
<defs>
<clipPath id="clip0_19_505">
<rect width="16" height="16" fill="white" transform="translate(-0.00317383 0.504883)"/>
</clipPath>
</defs>
</svg>
