<svg width="17" height="17" viewBox="0 0 17 17" fill="none" xmlns="http://www.w3.org/2000/svg">
<g clip-path="url(#clip0_19_761)">
<path d="M15.0359 6.83475C15.3402 8.32789 15.1234 9.88021 14.4216 11.2328C13.7199 12.5854 12.5756 13.6566 11.1797 14.2677C9.78376 14.8788 8.22053 14.9928 6.75068 14.5908C5.28084 14.1888 3.99323 13.2951 3.10259 12.0587C2.21194 10.8222 1.7721 9.31782 1.8564 7.79633C1.9407 6.27484 2.54405 4.82824 3.56584 3.69776C4.58763 2.56728 5.96609 1.82126 7.47135 1.58411C8.97661 1.34696 10.5177 1.63302 11.8375 2.39457" stroke="#0B0B0B" stroke-width="1.33239" stroke-linecap="round" stroke-linejoin="round"/>
<path d="M6.50781 7.50076L8.50639 9.49934L15.1683 2.8374" stroke="#0B0B0B" stroke-width="1.33239" stroke-linecap="round" stroke-linejoin="round"/>
</g>
<defs>
<clipPath id="clip0_19_761">
<rect width="15.9887" height="15.9887" fill="white" transform="translate(0.512207 0.967773)"/>
</clipPath>
</defs>
</svg>
