<svg width="15" height="13" viewBox="0 0 15 13" fill="none" xmlns="http://www.w3.org/2000/svg">
<path fill-rule="evenodd" clip-rule="evenodd" d="M6.14045 0.661621H8.88234C10.1075 0.661611 11.0779 0.661602 11.8374 0.763711C12.619 0.868797 13.2517 1.09021 13.7506 1.58912C14.2495 2.08803 14.4709 2.72066 14.576 3.50227C14.6363 3.95085 14.661 4.47302 14.6711 5.07781C14.6757 5.10506 14.6781 5.13306 14.6781 5.16162C14.6781 5.18512 14.6764 5.20825 14.6733 5.23089C14.6781 5.60804 14.6781 6.01618 14.6781 6.45735V6.53256C14.6781 7.75774 14.6781 8.72816 14.576 9.48764C14.4709 10.2693 14.2495 10.9019 13.7506 11.4008C13.2517 11.8997 12.619 12.1211 11.8374 12.2262C11.0779 12.3283 10.1075 12.3283 8.88233 12.3283H6.14045C4.91528 12.3283 3.94486 12.3283 3.18538 12.2262C2.40376 12.1211 1.77113 11.8997 1.27222 11.4008C0.773313 10.9019 0.551902 10.2693 0.446817 9.48764C0.344708 8.72816 0.344716 7.75774 0.344727 6.53257V6.45734C0.344723 6.01617 0.344719 5.60803 0.349484 5.23087C0.346348 5.20824 0.344727 5.18512 0.344727 5.16162C0.344727 5.13306 0.347121 5.10507 0.35172 5.07782C0.361821 4.47303 0.386506 3.95085 0.446817 3.50227C0.551902 2.72066 0.773313 2.08803 1.27222 1.58912C1.77113 1.09021 2.40376 0.868797 3.18538 0.763711C3.94485 0.661602 4.91528 0.661611 6.14045 0.661621ZM1.34605 5.66162C1.34479 5.92055 1.34473 6.19769 1.34473 6.49496C1.34473 7.76617 1.34579 8.66928 1.4379 9.35439C1.52808 10.0251 1.69719 10.4115 1.97933 10.6937C2.26147 10.9758 2.6479 11.1449 3.31863 11.2351C4.00374 11.3272 4.90685 11.3283 6.17806 11.3283H8.84473C10.1159 11.3283 11.0191 11.3272 11.7042 11.2351C12.3749 11.1449 12.7613 10.9758 13.0435 10.6937C13.3256 10.4115 13.4947 10.0251 13.5849 9.35439C13.677 8.66928 13.6781 7.76617 13.6781 6.49496C13.6781 6.19769 13.678 5.92055 13.6767 5.66162H1.34605ZM13.6607 4.66162H1.36211C1.37515 4.27047 1.39797 3.93251 1.4379 3.63552C1.52808 2.96479 1.69719 2.57836 1.97933 2.29622C2.26147 2.01408 2.6479 1.84497 3.31863 1.75479C4.00374 1.66268 4.90685 1.66162 6.17806 1.66162H8.84473C10.1159 1.66162 11.0191 1.66268 11.7042 1.75479C12.3749 1.84497 12.7613 2.01408 13.0435 2.29622C13.3256 2.57836 13.4947 2.96479 13.5849 3.63552C13.6248 3.93251 13.6476 4.27047 13.6607 4.66162ZM3.01139 9.16162C3.01139 8.88548 3.23525 8.66162 3.51139 8.66162H6.17806C6.4542 8.66162 6.67806 8.88548 6.67806 9.16162C6.67806 9.43776 6.4542 9.66162 6.17806 9.66162H3.51139C3.23525 9.66162 3.01139 9.43776 3.01139 9.16162ZM7.34473 9.16162C7.34473 8.88548 7.56859 8.66162 7.84473 8.66162H8.84473C9.12087 8.66162 9.34473 8.88548 9.34473 9.16162C9.34473 9.43776 9.12087 9.66162 8.84473 9.66162H7.84473C7.56859 9.66162 7.34473 9.43776 7.34473 9.16162Z" fill="white"/>
</svg>
