<svg width="15" height="16" viewBox="0 0 15 16" fill="none" xmlns="http://www.w3.org/2000/svg">
<path fill-rule="evenodd" clip-rule="evenodd" d="M9.00284 0.909767C8.27218 0.705809 7.58791 0.926293 7.10163 1.37311C6.62289 1.81301 6.33325 2.47043 6.33325 3.17384V7.63683C6.33325 8.48179 7.01822 9.16676 7.86317 9.16676H12.3262C13.0296 9.16676 13.687 8.87712 14.1269 8.39838C14.5737 7.9121 14.7942 7.22782 14.5902 6.49717C13.8355 3.79343 11.7066 1.6645 9.00284 0.909767ZM7.33325 3.17384C7.33325 2.73962 7.51333 2.35287 7.77823 2.10946C8.0356 1.87298 8.3689 1.77104 8.73398 1.87295C11.1008 2.53362 12.9664 4.39925 13.6271 6.76603C13.729 7.13111 13.627 7.46441 13.3905 7.72178C13.1471 7.98668 12.7604 8.16676 12.3262 8.16676H7.86317C7.57051 8.16676 7.33325 7.9295 7.33325 7.63683V3.17384Z" fill="#1A141F"/>
<path d="M5.28147 3.14378C5.54492 3.06103 5.69141 2.78038 5.60867 2.51693C5.52592 2.25348 5.24527 2.10698 4.98182 2.18973C2.28812 3.03577 0.333252 5.55204 0.333252 8.5262C0.333252 12.1937 3.30633 15.1668 6.97381 15.1668C9.94797 15.1668 12.4642 13.2119 13.3103 10.5182C13.393 10.2547 13.2465 9.97409 12.9831 9.89134C12.7196 9.80859 12.439 9.95509 12.3562 10.2185C11.6373 12.5074 9.49869 14.1668 6.97381 14.1668C3.85862 14.1668 1.33325 11.6414 1.33325 8.5262C1.33325 6.00131 2.99258 3.86268 5.28147 3.14378Z" fill="#1A141F"/>
</svg>
