<svg width="19" height="18" viewBox="0 0 19 18" fill="none" xmlns="http://www.w3.org/2000/svg">
<path d="M17.6252 8.01172C17.6727 8.39525 17.6995 8.78715 17.6995 9.19336C17.6994 11.699 16.8339 13.7875 15.3586 15.2266H13.2034V13.7598C14.1217 13.0651 14.7482 12.0899 14.9719 10.9482L15.0891 10.3525H10.1887V8.01172H17.6252Z" fill="#1A141F" stroke="#1A141F"/>
<path d="M4.35596 11.1895C5.2127 13.314 7.26624 14.8633 9.68896 14.8633C10.8351 14.8632 11.8386 14.5858 12.6694 14.1113L14.769 15.7422C13.4505 16.7732 11.7309 17.3818 9.68896 17.3818C6.45304 17.3818 3.65199 15.5424 2.25537 12.8555V11.1895H4.35596Z" fill="#1A141F" stroke="#1A141F"/>
<path d="M4.20312 5.5083V7.22217C4.02638 7.77807 3.92188 8.37331 3.92188 8.99365C3.92189 9.51439 3.99112 10.0212 4.12402 10.5054L1.94727 12.1958C1.53362 11.2084 1.29983 10.1311 1.2998 8.99365C1.2998 7.74646 1.58062 6.57143 2.07227 5.5083H4.20312Z" fill="#1A141F" stroke="#1A141F"/>
<path d="M9.68896 0.604492C11.7591 0.60455 13.5101 1.29693 14.8979 2.44629L13.0708 4.27344C12.1125 3.5117 10.9548 3.1231 9.68896 3.12305C7.38233 3.12305 5.40897 4.52699 4.48584 6.49512L2.39502 4.87207C3.83354 2.32652 6.55798 0.604492 9.68896 0.604492Z" fill="#1A141F" stroke="#1A141F"/>
</svg>
