<svg width="16" height="17" viewBox="0 0 16 17" fill="none" xmlns="http://www.w3.org/2000/svg">
<path fill-rule="evenodd" clip-rule="evenodd" d="M3.38262 3.87439C5.91284 1.34774 10.0259 1.3746 12.5716 3.9203C15.1184 6.4671 15.1442 10.5826 12.6143 13.1126C10.0843 15.6425 5.96878 15.6167 3.42198 13.0699C1.91275 11.5607 1.28952 9.50173 1.55714 7.54927C1.59464 7.27568 1.84682 7.0843 2.12041 7.1218C2.39399 7.1593 2.58538 7.41148 2.54788 7.68507C2.32123 9.33861 2.84871 11.0825 4.12909 12.3628C6.29208 14.5258 9.77442 14.5382 11.9072 12.4055C14.0399 10.2727 14.0275 6.79039 11.8645 4.62741C9.70264 2.46553 6.22275 2.45204 4.08973 4.5815L4.58819 4.584C4.86433 4.58539 5.08706 4.81037 5.08567 5.08651C5.08429 5.36265 4.85931 5.58538 4.58317 5.58399L2.88613 5.57546C2.61195 5.57408 2.39003 5.35216 2.38865 5.07798L2.38012 3.38095C2.37874 3.10481 2.60147 2.87983 2.8776 2.87844C3.15374 2.87705 3.37872 3.09978 3.38011 3.37592L3.38262 3.87439ZM7.99675 5.3284C8.27289 5.3284 8.49675 5.55225 8.49675 5.8284V8.28796L10.017 9.80818C10.2122 10.0034 10.2122 10.32 10.017 10.5153C9.8217 10.7105 9.50512 10.7105 9.30986 10.5153L7.49675 8.70217V5.8284C7.49675 5.55225 7.7206 5.3284 7.99675 5.3284Z" fill="white"/>
</svg>
