<svg width="16" height="17" viewBox="0 0 16 17" fill="none" xmlns="http://www.w3.org/2000/svg">
<g clip-path="url(#clip0_19_521)">
<path fill-rule="evenodd" clip-rule="evenodd" d="M7.99675 1.32861C4.0387 1.32861 0.830078 4.53724 0.830078 8.49528C0.830078 12.4533 4.0387 15.6619 7.99675 15.6619C11.9548 15.6619 15.1634 12.4533 15.1634 8.49528C15.1634 4.53724 11.9548 1.32861 7.99675 1.32861ZM1.83008 8.49528C1.83008 5.08952 4.59099 2.32861 7.99675 2.32861C9.51975 2.32861 10.9138 2.88073 11.9897 3.79572C11.9852 3.79985 11.9808 3.80407 11.9765 3.80839L3.30987 12.4749C3.30552 12.4793 3.30127 12.4837 3.29712 12.4881C2.38216 11.4123 1.83008 10.0182 1.83008 8.49528ZM4.00374 13.1948C5.07962 14.1098 6.4737 14.6619 7.99675 14.6619C11.4025 14.6619 14.1634 11.901 14.1634 8.49528C14.1634 6.97228 13.6113 5.57823 12.6963 4.50236C12.6922 4.5068 12.688 4.51118 12.6836 4.51551L4.01697 13.182C4.01262 13.1864 4.00821 13.1906 4.00374 13.1948Z" fill="#AC1010"/>
</g>
<defs>
<clipPath id="clip0_19_521">
<rect width="16" height="16" fill="white" transform="translate(-0.00317383 0.495117)"/>
</clipPath>
</defs>
</svg>
