<svg width="17" height="17" viewBox="0 0 17 17" fill="none" xmlns="http://www.w3.org/2000/svg">
<g clip-path="url(#clip0_19_668)">
<path d="M1.51367 10.7925C1.51367 8.90686 1.51367 7.96405 2.09946 7.37827C2.68524 6.79248 3.62805 6.79248 5.51367 6.79248H10.847C12.7326 6.79248 13.6754 6.79248 14.2612 7.37827C14.847 7.96405 14.847 8.90686 14.847 10.7925C14.847 12.6781 14.847 13.6209 14.2612 14.2067C13.6754 14.7925 12.7326 14.7925 10.847 14.7925H5.51367C3.62805 14.7925 2.68524 14.7925 2.09946 14.2067C1.51367 13.6209 1.51367 12.6781 1.51367 10.7925Z" stroke="#71717A" stroke-width="1.5"/>
<ellipse cx="8.18001" cy="10.7928" rx="1.33333" ry="1.33333" stroke="#858C94" stroke-width="1.5"/>
<path d="M4.18018 6.79281V5.45947C4.18018 3.25033 5.97104 1.45947 8.18018 1.45947C10.3893 1.45947 12.1802 3.25033 12.1802 5.45947V6.79281" stroke="#71717A" stroke-width="1.5" stroke-linecap="round"/>
</g>
<defs>
<clipPath id="clip0_19_668">
<rect width="16" height="16" fill="white" transform="translate(0.180176 0.125977)"/>
</clipPath>
</defs>
</svg>
